<svg xmlns="http://www.w3.org/2000/svg" viewBox="0 0 100.71 112.82"><defs><style>.cls-1{fill:#86c3d0;}.cls-2{fill:#fff;}.cls-3{font-size:12px;fill:#1d1d1b;font-family:MyriadPro-Regular, Myriad Pro;}.cls-4{letter-spacing:0em;}.cls-5{letter-spacing:0.03em;}.cls-6{letter-spacing:-0.01em;}.cls-7{letter-spacing:-0.01em;}.cls-8{letter-spacing:-0.01em;}.cls-9{letter-spacing:0em;}.cls-10{letter-spacing:-0.01em;}</style></defs><g id="API"><path class="cls-1" d="M50.35,13.37a43,43,0,1,0,43.05,43A43,43,0,0,0,50.35,13.37Z"/><path class="cls-2" d="M71.82,78.5H28.89a3.06,3.06,0,0,1-3.05-3V44.31a1,1,0,0,1,.94-1H73.93a1,1,0,0,1,.94,1V75.45A3.06,3.06,0,0,1,71.82,78.5ZM27.72,45.25v30.2a1.17,1.17,0,0,0,1.17,1.16H71.82A1.16,1.16,0,0,0,73,75.45V45.25Z"/><path class="cls-2" d="M73.93,45.25H26.78a.94.94,0,0,1-.94-.94V37.37a3.06,3.06,0,0,1,3.05-3H71.82a3.06,3.06,0,0,1,3.05,3v6.94A.94.94,0,0,1,73.93,45.25ZM27.72,43.36H73v-6a1.17,1.17,0,0,0-1.16-1.17H28.89a1.18,1.18,0,0,0-1.17,1.17Z"/><circle class="cls-2" cx="59.22" cy="39.78" r="1.22"/><path class="cls-2" d="M64.93,39.78a1.23,1.23,0,1,1-1.22-1.22A1.23,1.23,0,0,1,64.93,39.78Z"/><circle class="cls-2" cx="68.19" cy="39.78" r="1.22"/><path class="cls-2" d="M55.51,56.9H45.19a.94.94,0,0,1-.94-.94V50.67a.94.94,0,0,1,.94-.94H55.51a1,1,0,0,1,1,.94V56A1,1,0,0,1,55.51,56.9ZM46.14,55h8.43v-3.4H46.14Z"/><path class="cls-2" d="M40.29,72.13a3.84,3.84,0,1,1,3.83-3.83A3.84,3.84,0,0,1,40.29,72.13Zm0-5.79a2,2,0,1,0,2,2A2,2,0,0,0,40.29,66.34Z"/><path class="cls-2" d="M50.35,72.13a3.84,3.84,0,1,1,3.84-3.83A3.84,3.84,0,0,1,50.35,72.13Zm0-5.79a2,2,0,1,0,2,2A2,2,0,0,0,50.35,66.34Z"/><path class="cls-2" d="M60.42,72.13a3.84,3.84,0,1,1,3.84-3.83A3.84,3.84,0,0,1,60.42,72.13Zm0-5.79a2,2,0,1,0,2,2A2,2,0,0,0,60.42,66.34Z"/><path class="cls-2" d="M50.35,66.34a.94.94,0,0,1-.94-.94V56a.95.95,0,0,1,1.89,0V65.4A.94.94,0,0,1,50.35,66.34Z"/><path class="cls-2" d="M60.42,66.34a.94.94,0,0,1-.94-.94V61.63H41.23V65.4a.95.95,0,0,1-1.89,0V60.68a.94.94,0,0,1,.95-.94H60.42a1,1,0,0,1,.95.94V65.4A1,1,0,0,1,60.42,66.34Z"/></g><g id="HOSTING"><text class="cls-3" transform="translate(-16.52 -4.98)"><tspan class="cls-4">R</tspan><tspan x="6.5" y="0">ol</tspan><tspan class="cls-5" x="15.92" y="0">e</tspan><tspan x="22.27" y="0">-Based </tspan><tspan class="cls-6" x="58.32" y="0">A</tspan><tspan class="cls-7" x="65.52" y="0">cc</tspan><tspan x="76.13" y="0">ess </tspan><tspan class="cls-8" x="94.19" y="0">C</tspan><tspan x="101.02" y="0">o</tspan><tspan class="cls-9" x="107.6" y="0">n</tspan><tspan x="114.21" y="0">t</tspan><tspan class="cls-10" x="118.19" y="0">r</tspan><tspan x="121.99" y="0">ol</tspan></text></g></svg>